<mxfile host="app.diagrams.net" modified="2023-06-05T17:44:33.124Z" agent="Mozilla/5.0 (Windows NT 10.0; Win64; x64; rv:109.0) Gecko/20100101 Firefox/113.0" etag="pfWA5oHfMqkMa7cuuVUo" version="21.3.6" type="github">
  <diagram name="Página-1" id="f3gx98RwavGdNtIeZe02">
    <mxGraphModel dx="1658" dy="893" grid="1" gridSize="10" guides="1" tooltips="1" connect="1" arrows="1" fold="1" page="1" pageScale="1" pageWidth="850" pageHeight="1100" math="0" shadow="0">
      <root>
        <mxCell id="0" />
        <mxCell id="1" parent="0" />
        <mxCell id="WAtn7fkUdrT8nPm2LFEP-3" value="" style="edgeStyle=orthogonalEdgeStyle;rounded=0;orthogonalLoop=1;jettySize=auto;html=1;" edge="1" parent="1" source="WAtn7fkUdrT8nPm2LFEP-1" target="WAtn7fkUdrT8nPm2LFEP-2">
          <mxGeometry relative="1" as="geometry" />
        </mxCell>
        <mxCell id="WAtn7fkUdrT8nPm2LFEP-1" value="&lt;div&gt;Crear nuevo repositorio&lt;/div&gt;&lt;div&gt;Fideweb-server&lt;br&gt;&lt;/div&gt;" style="ellipse;whiteSpace=wrap;html=1;aspect=fixed;" vertex="1" parent="1">
          <mxGeometry x="50" y="40" width="110" height="110" as="geometry" />
        </mxCell>
        <mxCell id="WAtn7fkUdrT8nPm2LFEP-5" value="" style="edgeStyle=orthogonalEdgeStyle;rounded=0;orthogonalLoop=1;jettySize=auto;html=1;" edge="1" parent="1" source="WAtn7fkUdrT8nPm2LFEP-2" target="WAtn7fkUdrT8nPm2LFEP-4">
          <mxGeometry relative="1" as="geometry" />
        </mxCell>
        <mxCell id="WAtn7fkUdrT8nPm2LFEP-2" value="Crear base de datos fideweb" style="whiteSpace=wrap;html=1;" vertex="1" parent="1">
          <mxGeometry x="235" y="65" width="120" height="60" as="geometry" />
        </mxCell>
        <mxCell id="WAtn7fkUdrT8nPm2LFEP-7" value="" style="edgeStyle=orthogonalEdgeStyle;rounded=0;orthogonalLoop=1;jettySize=auto;html=1;" edge="1" parent="1" source="WAtn7fkUdrT8nPm2LFEP-4" target="WAtn7fkUdrT8nPm2LFEP-6">
          <mxGeometry relative="1" as="geometry" />
        </mxCell>
        <mxCell id="WAtn7fkUdrT8nPm2LFEP-4" value="Crear nuevo proyecto flask" style="whiteSpace=wrap;html=1;" vertex="1" parent="1">
          <mxGeometry x="435" y="65" width="120" height="60" as="geometry" />
        </mxCell>
        <mxCell id="WAtn7fkUdrT8nPm2LFEP-9" value="" style="edgeStyle=orthogonalEdgeStyle;rounded=0;orthogonalLoop=1;jettySize=auto;html=1;" edge="1" parent="1" source="WAtn7fkUdrT8nPm2LFEP-6" target="WAtn7fkUdrT8nPm2LFEP-8">
          <mxGeometry relative="1" as="geometry" />
        </mxCell>
        <mxCell id="WAtn7fkUdrT8nPm2LFEP-6" value="Crear archivo env-likle.txt vacío" style="whiteSpace=wrap;html=1;" vertex="1" parent="1">
          <mxGeometry x="620" y="65" width="120" height="60" as="geometry" />
        </mxCell>
        <mxCell id="WAtn7fkUdrT8nPm2LFEP-13" value="" style="edgeStyle=orthogonalEdgeStyle;rounded=0;orthogonalLoop=1;jettySize=auto;html=1;" edge="1" parent="1" source="WAtn7fkUdrT8nPm2LFEP-8" target="WAtn7fkUdrT8nPm2LFEP-12">
          <mxGeometry relative="1" as="geometry" />
        </mxCell>
        <mxCell id="WAtn7fkUdrT8nPm2LFEP-8" value="Crear endpoint ping" style="whiteSpace=wrap;html=1;" vertex="1" parent="1">
          <mxGeometry x="800" y="65" width="120" height="60" as="geometry" />
        </mxCell>
        <mxCell id="WAtn7fkUdrT8nPm2LFEP-17" value="" style="edgeStyle=orthogonalEdgeStyle;rounded=0;orthogonalLoop=1;jettySize=auto;html=1;" edge="1" parent="1" source="WAtn7fkUdrT8nPm2LFEP-12" target="WAtn7fkUdrT8nPm2LFEP-16">
          <mxGeometry relative="1" as="geometry" />
        </mxCell>
        <mxCell id="WAtn7fkUdrT8nPm2LFEP-12" value="Copiar gitignore de la platafide al nuevo proyecto" style="whiteSpace=wrap;html=1;" vertex="1" parent="1">
          <mxGeometry x="1000" y="65" width="120" height="60" as="geometry" />
        </mxCell>
        <mxCell id="WAtn7fkUdrT8nPm2LFEP-16" value="&lt;div&gt;Commit a git con el mensaje &quot;Inicialización de la aplicacion&quot;&lt;/div&gt;&lt;div&gt;&lt;br&gt;&lt;/div&gt;&lt;div&gt;push&lt;br&gt;&lt;/div&gt;" style="ellipse;whiteSpace=wrap;html=1;" vertex="1" parent="1">
          <mxGeometry x="1170" y="17.5" width="120" height="155" as="geometry" />
        </mxCell>
        <mxCell id="WAtn7fkUdrT8nPm2LFEP-18" value="&lt;div align=&quot;left&quot;&gt;1.1 Crear Proyecto&lt;br&gt;&lt;/div&gt;" style="text;html=1;strokeColor=none;fillColor=none;align=left;verticalAlign=middle;whiteSpace=wrap;rounded=0;fontSize=21;fontStyle=1" vertex="1" parent="1">
          <mxGeometry x="40" y="10" width="260" height="30" as="geometry" />
        </mxCell>
      </root>
    </mxGraphModel>
  </diagram>
</mxfile>
